<?xml version="1.0" standalone="no"?>
<!DOCTYPE svg PUBLIC "-//W3C//DTD SVG 20010904//EN"
 "http://www.w3.org/TR/2001/REC-SVG-20010904/DTD/svg10.dtd">
<svg version="1.0" xmlns="http://www.w3.org/2000/svg"
 width="180.000000pt" height="180.000000pt" viewBox="0 0 180.000000 180.000000"
 preserveAspectRatio="xMidYMid meet">
<metadata>
Created by potrace 1.14, written by Peter Selinger 2001-2017
</metadata>
<g transform="translate(0.000000,180.000000) scale(0.100000,-0.100000)"
fill="#000000" stroke="none">
<path d="M38 1793 c12 -2 32 -2 45 0 12 2 2 4 -23 4 -25 0 -35 -2 -22 -4z"/>
<path d="M128 1793 c7 -3 16 -2 19 1 4 3 -2 6 -13 5 -11 0 -14 -3 -6 -6z"/>
<path d="M300 1792 c0 -5 -18 -17 -40 -27 -22 -10 -40 -22 -40 -26 0 -4 -9
-11 -21 -14 -11 -4 -18 -9 -16 -11 3 -3 36 12 73 32 55 29 83 38 139 41 62 5
77 2 130 -23 87 -42 95 -47 95 -61 0 -7 10 -21 22 -33 12 -11 18 -20 14 -20
-4 0 1 -12 12 -27 11 -16 23 -43 27 -60 8 -38 14 -40 45 -13 13 12 29 18 36
16 8 -3 11 0 8 8 -3 8 10 18 36 26 22 7 40 17 40 21 0 14 -73 -15 -96 -38 -13
-13 -30 -23 -39 -23 -19 0 -38 47 -30 77 4 16 2 21 -8 17 -8 -3 -25 11 -41 35
-17 24 -49 51 -82 68 -30 15 -54 31 -54 36 0 4 -47 7 -105 7 -58 0 -105 -4
-105 -8z"/>
<path d="M1118 1793 c56 -2 148 -2 205 0 56 1 10 3 -103 3 -113 0 -159 -2
-102 -3z"/>
<path d="M1488 1793 c12 -2 30 -2 40 0 9 3 -1 5 -23 4 -22 0 -30 -2 -17 -4z"/>
<path d="M1678 1793 c23 -2 61 -2 85 0 23 2 4 4 -43 4 -47 0 -66 -2 -42 -4z"/>
<path d="M1423 1736 c-61 -19 -104 -49 -138 -95 -32 -44 -58 -51 -87 -24 -25
22 -122 29 -199 14 -61 -12 -86 -8 -59 9 12 8 11 10 -6 10 -20 0 -53 -44 -42
-56 3 -3 33 2 66 10 74 20 193 22 189 4 -1 -8 15 -15 43 -19 25 -3 60 -12 77
-19 42 -15 67 -7 31 10 -16 7 -28 16 -28 20 0 13 63 70 104 93 94 52 182 53
274 2 56 -31 62 -31 28 0 -52 48 -168 67 -253 41z"/>
<path d="M792 1732 c-9 -6 -6 -12 12 -20 20 -9 24 -8 22 6 -3 19 -16 25 -34
14z"/>
<path d="M137 1680 c-14 -11 -31 -37 -38 -58 -22 -66 -62 -116 -86 -107 -18 6
-18 -177 0 -206 10 -17 10 -23 0 -26 -18 -6 -17 -119 1 -169 7 -22 11 -45 8
-53 -3 -10 2 -13 22 -9 15 3 26 1 26 -5 0 -6 6 -2 14 8 13 18 19 18 57 8 38
-10 46 -9 67 8 13 10 28 16 33 13 5 -3 9 20 9 50 0 31 -4 56 -10 56 -17 0 -78
60 -109 107 -35 52 -65 146 -57 178 3 12 17 38 30 58 29 42 27 48 -4 15 -49
-52 -1 58 51 117 34 38 26 47 -14 15z m13 -435 c0 -12 -24 -55 -31 -55 -16 0
-19 20 -7 40 11 17 38 29 38 15z m4 -94 c3 -5 -1 -11 -9 -15 -15 -6 -29 7 -18
18 9 9 21 8 27 -3z"/>
<path d="M280 1631 c30 -4 69 -14 86 -23 42 -23 136 -127 130 -144 -6 -16 10
-19 19 -4 11 17 -63 106 -124 149 -25 18 -48 24 -100 26 -66 3 -66 3 -11 -4z"/>
<path d="M178 1623 c-10 -2 -18 -9 -18 -14 0 -6 10 -5 23 2 37 20 36 23 -5 12z"/>
<path d="M1730 1625 c0 -5 5 -17 10 -25 5 -8 10 -10 10 -5 0 6 -5 17 -10 25
-5 8 -10 11 -10 5z"/>
<path d="M135 1590 c-3 -5 -1 -10 4 -10 6 0 11 5 11 10 0 6 -2 10 -4 10 -3 0
-8 -4 -11 -10z"/>
<path d="M915 1570 c-3 -6 1 -7 9 -4 18 7 21 14 7 14 -6 0 -13 -4 -16 -10z"/>
<path d="M1585 1565 c-22 -8 -47 -12 -55 -9 -8 3 -11 2 -7 -2 4 -4 -6 -19 -22
-33 -15 -14 -33 -36 -40 -49 -7 -12 -17 -20 -23 -16 -6 4 -8 3 -4 -4 3 -6 1
-23 -6 -38 -11 -23 -10 -28 1 -32 7 -2 21 -12 31 -22 17 -17 18 -17 22 12 4
25 2 29 -14 25 -30 -8 -31 10 -2 59 34 58 87 93 151 100 62 8 90 -6 110 -54
17 -40 21 -142 8 -182 -7 -22 -6 -23 8 -12 9 8 14 19 11 27 -3 7 -1 16 5 20
13 7 15 211 3 219 -5 3 -7 -21 -5 -52 l3 -57 -17 41 c-27 69 -78 87 -158 59z"/>
<path d="M700 1500 c0 -5 7 -10 16 -10 8 0 12 5 9 10 -3 6 -10 10 -16 10 -5 0
-9 -4 -9 -10z"/>
<path d="M840 1400 c-9 -6 -10 -10 -3 -10 6 0 15 5 18 10 8 12 4 12 -15 0z"/>
<path d="M915 1364 c-20 -16 -19 -16 4 -9 16 5 21 4 17 -4 -5 -7 -1 -9 9 -5
16 7 16 26 -1 31 -5 1 -18 -5 -29 -13z"/>
<path d="M970 1324 c0 -8 5 -12 11 -9 6 4 16 -1 23 -10 12 -17 13 -17 19 -1 4
10 3 15 -3 11 -6 -3 -13 1 -16 9 -8 21 -34 21 -34 0z"/>
<path d="M1070 1287 c27 -15 36 -14 25 2 -3 6 -16 11 -28 11 -21 0 -21 -1 3
-13z"/>
<path d="M1060 1259 c14 -11 43 -32 65 -46 22 -14 48 -34 58 -45 12 -12 26
-17 38 -13 13 4 19 2 17 -6 -2 -7 11 -22 28 -33 l31 -21 -4 -80 c-4 -70 -2
-86 19 -124 28 -53 64 -77 103 -67 25 6 26 8 10 20 -12 9 -15 19 -11 34 9 28
44 29 54 1 8 -21 8 -21 24 3 8 13 19 38 23 56 3 18 10 30 15 27 9 -6 4 47 -10
102 -7 26 -5 32 11 36 12 3 17 11 13 20 -3 8 0 18 5 22 26 16 -4 25 -60 19
-33 -4 -78 -2 -102 4 -23 6 -64 16 -91 23 -43 11 -50 10 -61 -4 -19 -26 -27
-20 -20 13 8 35 -6 40 -26 9 -13 -18 -16 -19 -34 -5 -11 8 -17 18 -13 22 4 4
15 1 24 -7 15 -12 17 -12 12 1 -3 8 -16 15 -29 15 -35 1 -66 14 -73 30 -3 8
-13 15 -23 15 -15 0 -14 -4 7 -21z m239 -118 c15 -10 7 -31 -12 -31 -8 0 -7 3
2 9 11 7 10 11 -5 20 -11 6 -14 10 -9 11 6 0 16 -4 24 -9z m103 -58 c13 -12
18 -30 18 -70 0 -44 -5 -58 -25 -78 -26 -27 -33 -29 -51 -17 -37 24 -44 100
-14 150 22 36 44 40 72 15z m96 -135 c-5 -32 -28 -35 -28 -4 0 17 5 26 16 26
10 0 14 -7 12 -22z"/>
<path d="M1720 1270 c0 -5 5 -10 11 -10 5 0 7 5 4 10 -3 6 -8 10 -11 10 -2 0
-4 -4 -4 -10z"/>
<path d="M505 1214 c22 -17 18 -24 -12 -24 -22 0 -25 -2 -13 -10 8 -5 26 -10
40 -11 25 -1 24 -1 -5 -14 l-30 -14 28 -1 c31 0 32 -5 12 -40 -19 -34 -19
-113 2 -158 14 -32 17 -34 20 -15 9 47 61 54 84 12 8 -16 7 -26 -6 -46 -9 -13
-14 -27 -11 -31 4 -3 34 -6 69 -6 112 -1 176 62 184 181 5 61 2 72 -21 106
-14 21 -26 39 -26 41 0 1 18 8 40 15 22 6 40 16 40 20 0 5 -92 8 -205 7 -153
-1 -201 -4 -190 -12z m293 -55 c31 -11 35 -17 47 -76 9 -43 -11 -109 -38 -128
-56 -39 -140 2 -152 74 -12 69 31 125 106 140 3 0 20 -4 37 -10z m-203 -139
c0 -8 -10 -16 -22 -18 -18 -3 -23 2 -23 18 0 16 5 21 23 18 12 -2 22 -10 22
-18z"/>
<path d="M1318 1213 c7 -3 16 -2 19 1 4 3 -2 6 -13 5 -11 0 -14 -3 -6 -6z"/>
<path d="M1596 1104 c5 -65 14 -68 14 -6 0 29 -4 52 -9 52 -4 0 -7 -21 -5 -46z"/>
<path d="M1574 1020 c-4 -16 -10 -28 -14 -25 -4 3 -7 -6 -7 -19 0 -21 2 -23
17 -14 12 8 17 24 17 50 0 46 -5 49 -13 8z"/>
<path d="M1540 1019 c0 -5 5 -7 10 -4 6 3 10 8 10 11 0 2 -4 4 -10 4 -5 0 -10
-5 -10 -11z"/>
<path d="M0 981 c0 -37 2 -41 25 -41 18 0 26 -7 31 -24 8 -32 40 -40 65 -15
24 24 27 71 4 62 -9 -3 -15 -2 -14 3 4 24 -1 38 -12 27 -10 -10 -56 0 -86 20
-10 6 -13 -2 -13 -32z"/>
<path d="M210 996 c0 -9 5 -16 10 -16 6 0 10 4 10 9 0 6 -4 13 -10 16 -5 3
-10 -1 -10 -9z"/>
<path d="M1600 990 c-5 -42 -4 -78 1 -74 4 2 10 -11 14 -29 5 -21 9 -26 12
-15 2 9 13 20 23 23 21 7 35 35 17 35 -7 0 -18 -5 -25 -12 -12 -12 -19 -2 -32
56 -5 17 -9 24 -10 16z"/>
<path d="M1680 971 c0 -11 48 -24 60 -16 21 13 8 25 -25 25 -19 0 -35 -4 -35
-9z"/>
<path d="M28 913 c7 -3 16 -2 19 1 4 3 -2 6 -13 5 -11 0 -14 -3 -6 -6z"/>
<path d="M1130 850 c18 -12 50 -13 50 -2 0 4 -15 8 -33 9 -23 2 -28 0 -17 -7z"/>
<path d="M1686 804 c-4 -11 -13 -13 -27 -9 -21 7 -22 5 -17 -38 3 -26 2 -64
-2 -86 -7 -37 -5 -40 19 -46 23 -6 24 -8 8 -16 -9 -6 -21 -8 -26 -4 -5 3 -12
-8 -16 -24 -3 -16 -33 -68 -66 -115 -73 -105 -92 -161 -78 -225 12 -53 10
-197 -3 -223 -8 -16 -2 -18 71 -18 44 0 83 5 86 10 3 6 22 10 41 10 19 0 34
-4 34 -10 0 -5 21 -10 47 -10 48 0 50 14 3 23 -21 4 -20 4 8 6 l32 1 0 59 c0
33 -4 62 -9 66 -6 3 -6 18 0 38 15 51 11 65 -23 81 -40 20 -54 20 -38 1 8 -10
9 -19 4 -25 -13 -13 -64 0 -64 16 0 8 -4 14 -10 14 -5 0 -10 -4 -10 -10 0 -5
-10 -14 -21 -21 -27 -14 -43 5 -26 33 10 16 7 22 -20 44 -48 37 -44 58 10 51
23 -2 50 -8 60 -12 13 -5 17 -2 17 13 0 18 5 19 65 14 61 -4 65 -3 65 16 0 15
-9 22 -30 27 -16 4 -30 11 -30 17 0 6 -10 8 -23 4 -13 -3 -45 -8 -70 -11 -60
-7 -62 9 -7 64 22 22 40 44 40 50 0 16 15 13 30 -4 8 -9 21 -13 32 -9 12 3 27
-1 39 -12 18 -17 19 -16 19 20 0 23 -7 45 -20 58 -11 12 -20 25 -20 29 0 4 9
9 20 12 18 5 20 13 20 84 0 54 -3 73 -10 63 -5 -8 -10 -22 -10 -30 0 -9 -6
-22 -12 -28 -10 -10 -15 -5 -23 24 -11 41 -49 64 -59 38z m17 -94 c28 0 14
-25 -16 -28 -24 -3 -27 0 -27 24 0 22 3 25 12 16 7 -7 20 -12 31 -12z m-123
-420 c0 -5 -14 -10 -31 -10 -17 0 -28 4 -24 10 3 6 17 10 31 10 13 0 24 -4 24
-10z m106 -85 c-7 -18 -26 -20 -26 -2 0 18 24 41 28 27 2 -6 1 -17 -2 -25z
m-56 -35 c0 -5 -13 -16 -30 -25 -29 -15 -30 -15 -30 5 0 12 9 24 23 29 23 9
37 6 37 -9z m108 -11 c4 -35 -14 -79 -33 -79 -16 0 -35 38 -35 71 0 19 34 41
55 35 6 -1 11 -14 13 -27z m45 -96 c-7 -2 -19 -2 -25 0 -7 3 -2 5 12 5 14 0
19 -2 13 -5z"/>
<path d="M186 765 c-3 -8 -1 -15 4 -15 6 0 10 7 10 15 0 8 -2 15 -4 15 -2 0
-6 -7 -10 -15z"/>
<path d="M124 745 c-17 -13 -17 -14 -2 -15 9 0 20 5 23 11 11 17 0 20 -21 4z"/>
<path d="M45 740 c-3 -5 -1 -10 4 -10 6 0 11 5 11 10 0 6 -2 10 -4 10 -3 0 -8
-4 -11 -10z"/>
<path d="M1170 720 c14 -11 30 -20 35 -20 6 0 -1 9 -15 20 -14 11 -29 20 -35
20 -5 0 1 -9 15 -20z"/>
<path d="M1087 704 c-3 -4 -21 -10 -39 -14 -27 -7 -29 -8 -8 -9 27 0 95 27 69
28 -9 1 -18 -2 -22 -5z"/>
<path d="M1230 690 c8 -5 20 -10 25 -10 6 0 3 5 -5 10 -8 5 -19 10 -25 10 -5
0 -3 -5 5 -10z"/>
<path d="M180 680 c0 -11 -74 -90 -84 -90 -3 0 -6 18 -6 41 l0 40 -42 -3 -43
-3 -3 -123 c-2 -112 -1 -123 15 -120 11 2 19 -5 21 -17 6 -31 70 -103 93 -107
32 -4 35 -65 6 -92 -15 -13 -18 -20 -9 -23 19 -7 14 -37 -8 -53 -11 -8 -20
-21 -20 -30 0 -13 -1 -13 -10 0 -8 13 -10 12 -10 -3 0 -10 -4 -16 -10 -12 -5
3 -8 11 -6 18 1 7 1 9 -1 5 -3 -5 -18 -8 -34 -8 -28 0 -29 -1 -29 -50 l0 -50
58 0 57 0 26 103 c15 56 41 140 58 187 39 107 43 186 14 250 -18 38 -21 41
-22 20 -1 -24 -17 -50 -31 -50 -13 0 -29 50 -23 67 12 34 24 43 44 33 16 -9
18 -6 16 35 -1 25 -5 45 -9 45 -5 0 -8 -5 -8 -10z m-110 -109 c0 -21 -26 -36
-36 -20 -6 11 13 39 27 39 5 0 9 -9 9 -19z m130 -203 c-15 -35 -24 -44 -42
-43 -36 3 -33 24 6 40 29 12 36 21 36 42 0 18 3 24 10 17 7 -7 4 -25 -10 -56z"/>
<path d="M948 683 c12 -2 30 -2 40 0 9 3 -1 5 -23 4 -22 0 -30 -2 -17 -4z"/>
<path d="M903 648 c-19 -26 -32 -90 -23 -113 14 -37 45 -48 114 -41 34 4 100
11 147 14 62 5 93 12 107 25 19 18 57 116 47 125 -3 3 -8 -9 -11 -26 -4 -18
-11 -29 -17 -25 -6 3 -7 1 -3 -5 4 -7 2 -12 -4 -12 -7 0 -10 -6 -7 -14 3 -7
-7 -23 -23 -35 -30 -22 -70 -28 -70 -11 0 6 -14 10 -30 10 -22 0 -33 6 -39 22
-6 16 -26 28 -77 44 -41 13 -71 17 -73 12 -2 -6 -7 -4 -12 3 -7 11 -9 10 -9
-3 0 -9 -4 -19 -8 -22 -12 -7 -11 26 1 42 5 7 8 15 5 17 -3 3 -9 0 -15 -7z"/>
<path d="M1185 540 c-3 -5 -1 -10 4 -10 6 0 11 5 11 10 0 6 -2 10 -4 10 -3 0
-8 -4 -11 -10z"/>
<path d="M1 288 c1 -18 3 -25 6 -15 6 21 27 22 47 1 15 -14 16 -13 16 15 0 29
-3 31 -35 31 -33 0 -35 -2 -34 -32z"/>
<path d="M1348 270 c-3 -22 -2 -27 8 -19 6 5 10 19 7 29 -7 27 -10 25 -15 -10z"/>
<path d="M60 154 c0 -8 5 -12 10 -9 6 4 8 11 5 16 -9 14 -15 11 -15 -7z"/>
</g>
</svg>
